<svg viewBox="0 0 128 128"><path d="M91.602 68.445c-.416 2.094-.484 2.357-.539 2.551-.655 2.164-.749 2.424-.776 2.5-.913 2.215-1.05 2.504-1.045 2.504-.998 1.908-1.075 2.042-1.153 2.175a23.227 23.227 0 01-1.079 1.679c-1.442 1.928-1.685 2.218-1.723 2.263-1.564 1.7-1.827 1.96-1.93 2.063-1.742 1.552-1.995 1.756-2.046 1.8v.002l3.043 5.268a15779.844 15779.844 59.998 012 3.464l8.015 13.886a81044.005 81044.005 60.006 012 3.464l1.994 3.456c.552.956 1.748 1.24 2.648.6a64 64 0 0026.655-46.126c.104-1.1-.737-1.994-1.842-1.994H91.686zM99.91 76h16.674c1.105 0 1.81.876 1.535 1.945a56 56 0 01-14.98 25.954c-.788.774-1.9.6-2.452-.356l-8.337-14.44c-.552-.958-.414-2.41.256-3.29a36 36 0 004.585-7.947C97.617 76.846 98.805 76 99.91 76zM73.951 90.126c-2.02.687-2.283.76-2.479.808-2.201.515-2.474.565-2.552.579-2.375.316-2.693.343-2.691.347-2.152.09-2.306.09-2.46.088a23.22 23.22 0 01-1.994-.094c-2.39-.284-2.763-.35-2.821-.36-2.254-.505-2.61-.602-2.751-.64-2.215-.732-2.519-.85-2.583-.872h-.002l-3.04 5.27a11552.209 11552.209 119.994 01-2 3.464l-8.018 13.885a53082.295 53082.295 120.006 01-2 3.464l-1.996 3.455c-.552.957-.2 2.133.805 2.593a64 64 0 0053.273.02c1.005-.46 1.358-1.635.806-2.592l-1.912-3.312a722.776 722.776 59.985 00-1.1-1.904L79.42 98.706a157863.03 157863.03 60.003 00-2-3.464l-2.037-3.529a13.283 13.283 59.975 00-1.004-1.737zm-2.388 10.973l8.337 14.44c.552.957.147 2.006-.917 2.302a55.996 55.996 0 01-29.968.004c-1.064-.296-1.47-1.345-.917-2.301l8.339-14.442c.552-.957 1.88-1.564 2.976-1.423a36 36 0 009.174-.002c1.096-.141 2.424.465 2.976 1.422zM46.349 85.681c-1.604-1.407-1.799-1.597-1.939-1.742-1.546-1.65-1.725-1.86-1.777-1.921-1.461-1.898-1.644-2.161-1.646-2.158-1.154-1.819-1.23-1.952-1.307-2.086-.544-.961-.919-1.774-.914-1.774-.95-2.212-1.08-2.568-1.1-2.623-.689-2.204-.783-2.562-.821-2.703-.473-2.285-.523-2.606-.536-2.672L36.307 68h-6.083a32332 32332 179.996 01-4 .001H10.19a31960 31960 .004 01-4 0H2.2c-1.105 0-1.947.893-1.844 1.993a64 64 0 0026.62 46.145c.9.64 2.095.359 2.647-.598l1.912-3.312a722.776 722.776 120.015 011.1-1.904l9.017-15.619a223599.41 223599.41 119.998 002-3.464l2.037-3.529a13.283 13.283 120.025 011.004-1.737zm-10.696 3.418l-8.337 14.44c-.552.957-1.664 1.13-2.452.357a56 56 0 01-14.988-25.95c-.277-1.07.43-1.945 1.534-1.945h16.676c1.105 0 2.294.847 2.72 1.866a36 36 0 005.847 9.5zm.745-29.544c.416-2.094.484-2.357.539-2.551.655-2.164.749-2.424.776-2.5.913-2.215 1.05-2.504 1.045-2.504.998-1.908 1.075-2.042 1.153-2.175a23.227 23.227 0 011.079-1.679c1.442-1.928 1.685-2.218 1.723-2.263 1.564-1.7 1.827-1.96 1.93-2.063 1.742-1.552 1.995-1.756 2.046-1.8v-.002l-3.043-5.268a15779.844 15779.844 59.998 01-2-3.464L33.631 19.4a81044.005 81044.005 60.006 01-2-3.464l-1.994-3.456c-.552-.956-1.748-1.24-2.648-.6A64 64 0 00.334 58.006C.23 59.106 1.071 60 2.176 60H36.314zM28.09 52H11.416c-1.105 0-1.81-.876-1.535-1.945A56 56 0 0124.861 24.1c.787-.774 1.899-.6 2.451.356l8.338 14.441c.552.957.414 2.41-.256 3.288a36 36 0 00-4.585 7.948C30.383 51.154 29.195 52 28.09 52zm25.959-14.126c2.02-.687 2.283-.76 2.479-.808 2.201-.515 2.474-.565 2.552-.579 2.375-.316 2.693-.343 2.691-.347 2.152-.09 2.306-.09 2.46-.088a23.22 23.22 0 011.994.094c2.39.284 2.763.35 2.821.36 2.254.505 2.61.602 2.751.64 2.215.732 2.519.85 2.583.872h.002l3.04-5.27a11552.209 11552.209 119.994 012-3.464l8.018-13.885a53082.295 53082.295 120.006 012-3.464l1.996-3.455c.552-.957.2-2.133-.805-2.593a64 64 0 00-53.273-.02c-1.005.46-1.358 1.635-.806 2.592l1.912 3.312a722.776 722.776 59.985 001.1 1.904l9.016 15.619a157863.03 157863.03 60.003 002 3.464l2.037 3.529a13.283 13.283 59.975 001.004 1.737zm2.388-10.973L48.1 12.461c-.552-.957-.147-2.006.917-2.302a56 56 0 0129.968-.004c1.064.295 1.47 1.344.917 2.301l-8.339 14.442c-.552.957-1.88 1.563-2.976 1.423a36 36 0 00-9.174.002c-1.096.14-2.424-.465-2.976-1.422zm25.214 15.418c1.604 1.407 1.799 1.597 1.939 1.742 1.546 1.65 1.725 1.86 1.777 1.921 1.461 1.898 1.644 2.161 1.646 2.158 1.154 1.819 1.23 1.952 1.307 2.086.544.961.919 1.774.914 1.774.95 2.212 1.08 2.568 1.1 2.623.689 2.204.783 2.562.821 2.703.473 2.285.523 2.606.536 2.672l.002.002h6.083a32332 32332 179.996 014-.001h16.033a31960 31960 .004 014 0h3.99c1.105 0 1.947-.893 1.844-1.993a64 64 0 00-26.62-46.145c-.9-.64-2.095-.359-2.647.598l-1.912 3.312a722.776 722.776 120.015 01-1.1 1.904l-9.017 15.619a223599.41 223599.41 119.998 00-2 3.464l-2.037 3.529a118.938 118.938 120 01-1.003 1.737zm10.696-3.418l8.337-14.44c.552-.957 1.664-1.13 2.452-.357a56 56 0 0114.987 25.95c.277 1.07-.43 1.945-1.534 1.945H99.913c-1.105 0-2.294-.847-2.72-1.866a36 36 0 00-4.59-7.944c-.67-.878-.808-2.331-.256-3.288z" fill="#fe5000"/></svg>
